<?xml version="1.0" standalone="no"?><!DOCTYPE svg PUBLIC "-//W3C//DTD SVG 1.1//EN" "http://www.w3.org/Graphics/SVG/1.1/DTD/svg11.dtd"><svg class="icon" style="" viewBox="0 0 1024 1024" version="1.1" xmlns="http://www.w3.org/2000/svg" p-id="4878" xmlns:xlink="http://www.w3.org/1999/xlink" width="200" height="200"><defs><style type="text/css"><![CDATA[

]]></style></defs><path d="M821.246 952.657v0l-56.356 0.253-136.059-136.059c165.456-49.909 285.907-203.504 285.907-385.205 0-222.193-180.158-402.354-402.354-402.354s-402.354 180.158-402.354 402.354c0 187.376 128.064 344.842 301.506 389.591l-125.733 125.733c-2.319 2.319-3.865 4.896-4.896 7.866l-67.84 0.253c-11.595 0-21.022 9.546-21.022 21.155s9.546 21.022 21.155 21.022h0.133l608.051-2.455c11.595 0 21.022-9.546 21.022-21.155-0.133-11.595-9.546-21.022-21.155-21.022v0zM257.812 686.352c-33.149-33.149-59.056-71.566-77.251-114.523-18.823-44.359-28.252-91.562-28.252-140.186 0-48.621 9.546-95.811 28.252-140.186 18.17-42.94 44.11-81.386 77.251-114.523 33.149-33.149 71.566-59.056 114.523-77.251 44.359-18.823 91.562-28.252 140.186-28.252 48.621 0 95.811 9.546 140.186 28.252 42.818 18.17 81.386 44.11 114.523 77.251 33.149 33.149 59.056 71.566 77.251 114.523 18.823 44.359 28.252 91.562 28.252 140.186 0 48.621-9.546 95.811-28.252 140.186-18.17 42.818-44.11 81.386-77.251 114.523-33.149 33.149-71.566 59.056-114.523 77.251-44.359 18.699-91.562 28.252-140.186 28.252-48.621 0-95.811-9.546-140.186-28.252-42.818-18.315-81.386-44.231-114.523-77.251v0zM338.027 954.594l123.805-123.805c16.635 2.058 33.524 3.226 50.678 3.226 23.216 0 45.915-1.931 68.097-5.804l124.832 124.832-367.401 1.55zM338.027 954.594zM744.773 463.379c0-128.321-103.936-232.259-232.259-232.259s-232.259 103.936-232.259 232.259c0 128.321 103.936 232.259 232.259 232.259s232.259-104.067 232.259-232.259v0zM322.43 463.379c0-50.82 19.73-98.533 55.716-134.367 35.85-35.85 83.573-55.716 134.367-55.716s98.533 19.73 134.367 55.716 55.716 83.573 55.716 134.367-19.73 98.533-55.716 134.367-83.573 55.716-134.367 55.716-98.533-19.73-134.367-55.716c-35.85-35.987-55.716-83.699-55.716-134.367v0zM322.43 463.379zM472.935 151.555c0 10.834 4.383 21.535 12.117 29.146s18.315 11.995 29.146 11.995 21.535-4.383 29.146-11.995 12.117-18.315 12.117-29.146c0-10.834-4.383-21.535-12.117-29.146-7.615-7.615-18.315-11.995-29.146-11.995s-21.535 4.383-29.146 11.995c-7.615 7.615-12.117 18.315-12.117 29.146v0zM472.935 151.555z" p-id="4879" fill="#23A7C9"></path></svg>